<svg width="87" height="25" viewBox="0 0 87 25" fill="none" xmlns="http://www.w3.org/2000/svg">
<g clip-path="url(#clip0_1_1181)">
<path d="M3.34966 18.1296C3.18966 18.1829 3.04966 18.1629 2.92966 18.0696C2.80966 17.9763 2.763 17.8363 2.78966 17.6496L3.38966 14.1296L0.749664 11.6096C0.642998 11.4763 0.609664 11.3296 0.649664 11.1696C0.689664 11.0096 0.802998 10.9163 0.989664 10.8896L4.62966 10.3696L6.26966 7.1296C6.34966 6.9696 6.46966 6.8896 6.62966 6.8896C6.78966 6.8896 6.90966 6.9696 6.98966 7.1296L8.62966 10.3696L12.3097 10.8896C12.4697 10.9163 12.5697 11.0096 12.6097 11.1696C12.6497 11.3296 12.6163 11.4763 12.5097 11.6096L9.86966 14.1296L10.4697 17.6496C10.4963 17.8363 10.4497 17.9763 10.3297 18.0696C10.2097 18.1629 10.0697 18.1829 9.90966 18.1296L6.62966 16.4096L3.34966 18.1296Z" fill="#E62415"/>
</g>
<g clip-path="url(#clip1_1_1181)">
<path d="M19.3497 18.1296C19.1897 18.1829 19.0497 18.1629 18.9297 18.0696C18.8097 17.9763 18.763 17.8363 18.7897 17.6496L19.3897 14.1296L16.7497 11.6096C16.643 11.4763 16.6097 11.3296 16.6497 11.1696C16.6897 11.0096 16.803 10.9163 16.9897 10.8896L20.6297 10.3696L22.2697 7.1296C22.3497 6.9696 22.4697 6.8896 22.6297 6.8896C22.7897 6.8896 22.9097 6.9696 22.9897 7.1296L24.6297 10.3696L28.3097 10.8896C28.4697 10.9163 28.5697 11.0096 28.6097 11.1696C28.6497 11.3296 28.6163 11.4763 28.5097 11.6096L25.8697 14.1296L26.4697 17.6496C26.4963 17.8363 26.4497 17.9763 26.3297 18.0696C26.2097 18.1629 26.0697 18.1829 25.9097 18.1296L22.6297 16.4096L19.3497 18.1296Z" fill="#E62415"/>
</g>
<g clip-path="url(#clip2_1_1181)">
<path d="M35.3497 18.1296C35.1897 18.1829 35.0497 18.1629 34.9297 18.0696C34.8097 17.9763 34.763 17.8363 34.7897 17.6496L35.3897 14.1296L32.7497 11.6096C32.643 11.4763 32.6097 11.3296 32.6497 11.1696C32.6897 11.0096 32.803 10.9163 32.9897 10.8896L36.6297 10.3696L38.2697 7.1296C38.3497 6.9696 38.4697 6.8896 38.6297 6.8896C38.7897 6.8896 38.9097 6.9696 38.9897 7.1296L40.6297 10.3696L44.3097 10.8896C44.4697 10.9163 44.5697 11.0096 44.6097 11.1696C44.6497 11.3296 44.6163 11.4763 44.5097 11.6096L41.8697 14.1296L42.4697 17.6496C42.4963 17.8363 42.4497 17.9763 42.3297 18.0696C42.2097 18.1629 42.0697 18.1829 41.9097 18.1296L38.6297 16.4096L35.3497 18.1296Z" fill="#E62415"/>
</g>
<g clip-path="url(#clip3_1_1181)">
<path d="M51.3497 18.1296C51.1897 18.1829 51.0497 18.1629 50.9297 18.0696C50.8097 17.9763 50.763 17.8363 50.7897 17.6496L51.3897 14.1296L48.7497 11.6096C48.643 11.4763 48.6097 11.3296 48.6497 11.1696C48.6897 11.0096 48.803 10.9163 48.9897 10.8896L52.6297 10.3696L54.2697 7.1296C54.3497 6.9696 54.4697 6.8896 54.6297 6.8896C54.7897 6.8896 54.9097 6.9696 54.9897 7.1296L56.6297 10.3696L60.3097 10.8896C60.4697 10.9163 60.5697 11.0096 60.6097 11.1696C60.6497 11.3296 60.6163 11.4763 60.5097 11.6096L57.8697 14.1296L58.4697 17.6496C58.4963 17.8363 58.4497 17.9763 58.3297 18.0696C58.2097 18.1629 58.0697 18.1829 57.9097 18.1296L54.6297 16.4096L51.3497 18.1296Z" fill="#E62415"/>
</g>
<g clip-path="url(#clip4_1_1181)">
<path d="M67.3497 18.1296C67.1897 18.1829 67.0497 18.1629 66.9297 18.0696C66.8097 17.9763 66.763 17.8363 66.7897 17.6496L67.3897 14.1296L64.7497 11.6096C64.643 11.4763 64.6097 11.3296 64.6497 11.1696C64.6897 11.0096 64.803 10.9163 64.9897 10.8896L68.6297 10.3696L70.2697 7.1296C70.3497 6.9696 70.4697 6.8896 70.6297 6.8896C70.7897 6.8896 70.9097 6.9696 70.9897 7.1296L72.6297 10.3696L76.3097 10.8896C76.4697 10.9163 76.5697 11.0096 76.6097 11.1696C76.6497 11.3296 76.6163 11.4763 76.5097 11.6096L73.8697 14.1296L74.4697 17.6496C74.4963 17.8363 74.4497 17.9763 74.3297 18.0696C74.2097 18.1629 74.0697 18.1829 73.9097 18.1296L70.6297 16.4096L67.3497 18.1296Z" fill="#E62415"/>
</g>
<defs>
<clipPath id="clip0_1_1181">
<rect width="12" height="12" fill="white" transform="matrix(1 0 0 -1 0.629883 18.5295)"/>
</clipPath>
<clipPath id="clip1_1_1181">
<rect width="12" height="12" fill="white" transform="matrix(1 0 0 -1 16.6299 18.5295)"/>
</clipPath>
<clipPath id="clip2_1_1181">
<rect width="12" height="12" fill="white" transform="matrix(1 0 0 -1 32.6299 18.5295)"/>
</clipPath>
<clipPath id="clip3_1_1181">
<rect width="12" height="12" fill="white" transform="matrix(1 0 0 -1 48.6299 18.5295)"/>
</clipPath>
<clipPath id="clip4_1_1181">
<rect width="12" height="12" fill="white" transform="matrix(1 0 0 -1 64.6299 18.5295)"/>
</clipPath>
</defs>
</svg>
