<svg width="87" height="19" viewBox="0 0 87 19" fill="none" xmlns="http://www.w3.org/2000/svg">
<g clip-path="url(#clip0_1_1209)">
<path d="M3.05963 12.1501C2.89963 12.2034 2.75963 12.1834 2.63963 12.0901C2.51963 11.9968 2.47296 11.8568 2.49963 11.6701L3.09963 8.15011L0.459625 5.63011C0.352959 5.49677 0.319625 5.35011 0.359625 5.19011C0.399625 5.03011 0.512959 4.93677 0.699625 4.91011L4.33963 4.39011L5.97963 1.15011C6.05963 0.990109 6.17963 0.910109 6.33963 0.910109C6.49963 0.910109 6.61963 0.990109 6.69963 1.15011L8.33963 4.39011L12.0196 4.91011C12.1796 4.93677 12.2796 5.03011 12.3196 5.19011C12.3596 5.35011 12.3263 5.49677 12.2196 5.63011L9.57963 8.15011L10.1796 11.6701C10.2063 11.8568 10.1596 11.9968 10.0396 12.0901C9.91963 12.1834 9.77963 12.2034 9.61963 12.1501L6.33963 10.4301L3.05963 12.1501Z" fill="#FFC107"/>
</g>
<g clip-path="url(#clip1_1_1209)">
<path d="M21.0596 12.1501C20.8996 12.2034 20.7596 12.1834 20.6396 12.0901C20.5196 11.9968 20.473 11.8568 20.4996 11.6701L21.0996 8.15011L18.4596 5.63011C18.353 5.49677 18.3196 5.35011 18.3596 5.19011C18.3996 5.03011 18.513 4.93677 18.6996 4.91011L22.3396 4.39011L23.9796 1.15011C24.0596 0.990109 24.1796 0.910109 24.3396 0.910109C24.4996 0.910109 24.6196 0.990109 24.6996 1.15011L26.3396 4.39011L30.0196 4.91011C30.1796 4.93677 30.2796 5.03011 30.3196 5.19011C30.3596 5.35011 30.3263 5.49677 30.2196 5.63011L27.5796 8.15011L28.1796 11.6701C28.2063 11.8568 28.1596 11.9968 28.0396 12.0901C27.9196 12.1834 27.7796 12.2034 27.6196 12.1501L24.3396 10.4301L21.0596 12.1501Z" fill="#FFC107"/>
</g>
<g clip-path="url(#clip2_1_1209)">
<path d="M39.0596 12.1501C38.8996 12.2034 38.7596 12.1834 38.6396 12.0901C38.5196 11.9968 38.473 11.8568 38.4996 11.6701L39.0996 8.15011L36.4596 5.63011C36.353 5.49677 36.3196 5.35011 36.3596 5.19011C36.3996 5.03011 36.513 4.93677 36.6996 4.91011L40.3396 4.39011L41.9796 1.15011C42.0596 0.990109 42.1796 0.910109 42.3396 0.910109C42.4996 0.910109 42.6196 0.990109 42.6996 1.15011L44.3396 4.39011L48.0196 4.91011C48.1796 4.93677 48.2796 5.03011 48.3196 5.19011C48.3596 5.35011 48.3263 5.49677 48.2196 5.63011L45.5796 8.15011L46.1796 11.6701C46.2063 11.8568 46.1596 11.9968 46.0396 12.0901C45.9196 12.1834 45.7796 12.2034 45.6196 12.1501L42.3396 10.4301L39.0596 12.1501Z" fill="#FFC107"/>
</g>
<g clip-path="url(#clip3_1_1209)">
<path d="M57.0596 12.1501C56.8996 12.2034 56.7596 12.1834 56.6396 12.0901C56.5196 11.9968 56.473 11.8568 56.4996 11.6701L57.0996 8.15011L54.4596 5.63011C54.353 5.49677 54.3196 5.35011 54.3596 5.19011C54.3996 5.03011 54.513 4.93677 54.6996 4.91011L58.3396 4.39011L59.9796 1.15011C60.0596 0.990109 60.1796 0.910109 60.3396 0.910109C60.4996 0.910109 60.6196 0.990109 60.6996 1.15011L62.3396 4.39011L66.0196 4.91011C66.1796 4.93677 66.2796 5.03011 66.3196 5.19011C66.3596 5.35011 66.3263 5.49677 66.2196 5.63011L63.5796 8.15011L64.1796 11.6701C64.2063 11.8568 64.1596 11.9968 64.0396 12.0901C63.9196 12.1834 63.7796 12.2034 63.6196 12.1501L60.3396 10.4301L57.0596 12.1501Z" fill="#FFC107"/>
</g>
<g clip-path="url(#clip4_1_1209)">
<path d="M75.0596 12.1501C74.8996 12.2034 74.7596 12.1834 74.6396 12.0901C74.5196 11.9968 74.473 11.8568 74.4996 11.6701L75.0996 8.15011L72.4596 5.63011C72.353 5.49677 72.3196 5.35011 72.3596 5.19011C72.3996 5.03011 72.513 4.93677 72.6996 4.91011L76.3396 4.39011L77.9796 1.15011C78.0596 0.990109 78.1796 0.910109 78.3396 0.910109C78.4996 0.910109 78.6196 0.990109 78.6996 1.15011L80.3396 4.39011L84.0196 4.91011C84.1796 4.93677 84.2796 5.03011 84.3196 5.19011C84.3596 5.35011 84.3263 5.49677 84.2196 5.63011L81.5796 8.15011L82.1796 11.6701C82.2063 11.8568 82.1596 11.9968 82.0396 12.0901C81.9196 12.1834 81.7796 12.2034 81.6196 12.1501L78.3396 10.4301L75.0596 12.1501Z" fill="#FFC107"/>
</g>
<defs>
<clipPath id="clip0_1_1209">
<rect width="12" height="12" fill="white" transform="matrix(1 0 0 -1 0.339844 12.55)"/>
</clipPath>
<clipPath id="clip1_1_1209">
<rect width="12" height="12" fill="white" transform="matrix(1 0 0 -1 18.3398 12.55)"/>
</clipPath>
<clipPath id="clip2_1_1209">
<rect width="12" height="12" fill="white" transform="matrix(1 0 0 -1 36.3398 12.55)"/>
</clipPath>
<clipPath id="clip3_1_1209">
<rect width="12" height="12" fill="white" transform="matrix(1 0 0 -1 54.3398 12.55)"/>
</clipPath>
<clipPath id="clip4_1_1209">
<rect width="12" height="12" fill="white" transform="matrix(1 0 0 -1 72.3398 12.55)"/>
</clipPath>
</defs>
</svg>
